<?xml version="1.0" encoding="utf-8"?>
<!DOCTYPE svg PUBLIC "-//W3C//DTD SVG 1.1//EN" "http://www.w3.org/Graphics/SVG/1.1/DTD/svg11.dtd">
<svg version="1.1" xmlns="http://www.w3.org/2000/svg" xmlns:xlink="http://www.w3.org/1999/xlink" x="0px" y="0px" viewBox="0 0 256 256" enable-background="new 0 0 256 256" xml:space="preserve">
<metadata> Svg Vector Icons : http://www.onlinewebfonts.com/icon </metadata>
<g><g><path fill="#000000" d="M130,91.4c-0.2,0-0.5,0-0.7,0.1c0,0,0,0-0.1,0c-0.2,0-0.5,0-0.7,0.1c-1.8,0.3-3.4,1.3-4.4,3l-26.8,50.8L70.7,94.4c-1.4-2.4-4.3-3.5-7-2.9c0,0-0.1,0-0.1,0c-0.3,0.1-0.5,0.1-0.7,0.2c-0.2,0.1-0.5,0.2-0.7,0.3c0,0-0.1,0-0.1,0.1c0,0,0,0,0,0c-0.7,0.4-1.3,0.9-1.9,1.6c0,0,0,0,0,0c-0.5,0.6-0.8,1.3-1,2.1c0,0,0,0.1,0,0.1c-0.1,0.5-0.2,1-0.2,1.5v61c0,3.4,2.7,6.1,6.1,6.1c3.4,0,6.1-2.7,6.1-6.1v-36.3l20.7,39.3c1.5,2.6,4.6,3.7,7.4,2.8c1.7-0.4,3.2-1.4,4.1-2.9l20.7-39.2v36.3c0,3.4,2.7,6.1,6.1,6.1c3.4,0,6.1-2.7,6.1-6.1V97.5C136.1,94.1,133.4,91.4,130,91.4z"/><path fill="#000000" d="M197.7,91.9c-3-1.4-6.6,0-7.9,3.1l-19,47l-19-47c-1.3-3.1-4.9-4.5-7.9-3.1c-3,1.4-4.4,5.1-3,8.2l24.1,59.6c0.4,1.9,1.5,3.5,3.3,4.4c0.8,0.4,1.7,0.5,2.6,0.5c0.9,0,1.7-0.1,2.6-0.5c1.8-0.8,2.9-2.5,3.3-4.4l24.1-59.6C202.1,97,200.7,93.3,197.7,91.9z"/><path fill="#000000" d="M197.1,22.2H58.8C31.9,22.2,10,44.1,10,71v113.9c0,27,21.9,48.8,48.8,48.8h138.3c27,0,48.8-21.9,48.8-48.8V71.1C246,44.1,224.1,22.2,197.1,22.2z M233.8,185c0,20.2-16.4,36.6-36.6,36.6H58.8c-20.2,0-36.6-16.4-36.6-36.6V71.1c0-20.2,16.4-36.6,36.6-36.6h138.3c20.2,0,36.6,16.4,36.6,36.6L233.8,185L233.8,185z"/></g></g>
</svg>